<?xml version="1.0" standalone="no"?>
<!DOCTYPE svg PUBLIC "-//W3C//DTD SVG 20010904//EN"
 "http://www.w3.org/TR/2001/REC-SVG-20010904/DTD/svg10.dtd">
<svg version="1.0" xmlns="http://www.w3.org/2000/svg"
 width="512.000000pt" height="512.000000pt" viewBox="0 0 512.000000 512.000000"
 preserveAspectRatio="xMidYMid meet">

<g transform="translate(0.000000,512.000000) scale(0.100000,-0.100000)"
fill="#ffffff" stroke="none">
<path d="M560 4597 c-48 -24 -50 -38 -50 -415 0 -398 1 -402 68 -422 23 -8
102 -10 214 -8 170 3 177 4 202 27 25 23 26 29 28 163 l3 138 440 -725 c242
-399 455 -752 473 -784 46 -83 108 -360 92 -413 -9 -31 -58 -81 -268 -274
-141 -129 -274 -258 -294 -286 -21 -28 -45 -74 -53 -102 -16 -52 -105 -709
-105 -768 1 -43 30 -106 66 -140 103 -97 296 -97 397 0 43 41 51 60 112 297
89 345 105 398 131 432 25 32 376 258 450 289 48 20 141 22 186 4 43 -18 396
-236 426 -263 46 -42 62 -86 137 -377 42 -162 87 -313 99 -335 12 -22 42 -54
69 -72 174 -117 427 -16 427 169 0 44 -84 692 -96 745 -4 15 -20 54 -37 87
-26 50 -75 99 -314 318 -156 144 -283 267 -283 277 0 50 73 342 98 391 33 63
897 1489 912 1504 7 7 10 -33 10 -120 0 -127 1 -131 26 -155 25 -23 31 -24
202 -27 112 -2 191 0 214 8 69 20 69 23 66 435 -3 364 -3 364 -26 387 -22 22
-30 23 -209 26 -203 4 -224 1 -253 -28 -18 -18 -20 -34 -20 -165 l0 -145
-1540 0 -1540 0 0 139 c0 77 -3 147 -6 156 -15 37 -56 45 -246 45 -127 0 -191
-4 -208 -13z m3010 -503 c0 -3 -176 -242 -392 -531 -390 -523 -392 -525 -422
-518 -75 15 -291 17 -353 2 l-63 -14 -388 521 c-213 286 -391 527 -396 534 -6
9 198 12 1003 12 556 0 1011 -3 1011 -6z"/>
<path d="M2438 3991 c-155 -50 -261 -166 -294 -322 -44 -209 78 -419 284 -488
114 -39 259 -21 360 43 139 88 220 269 192 427 -47 257 -302 417 -542 340z"/>
</g>
</svg>
